<svg xmlns="http://www.w3.org/2000/svg" viewBox="0 0 310.3 618.6"><defs><style>.cls-1{fill:#fff;stroke:#1d1d1b;stroke-miterlimit:10;stroke-width:2px;}.cls-2{fill:#a0be1b;}.cls-3{fill:#f7d642;}.cls-4{fill:#ec663e;}.cls-5{fill:#0a92ba;}.cls-6{fill:#4d2778;}.cls-7{fill:#f5d742;}.cls-8{fill:#724b98;}.cls-9{fill:#309437;}</style></defs><g id="Layer_2" data-name="Layer 2"><g id="Layer_1-2" data-name="Layer 1"><path class="cls-1" d="M309.3,309.3c0,170.27-138,308.3-308.3,308.3V471.3a162,162,0,0,0,0-324V1C171.27,1,309.3,139,309.3,309.3Z"/><circle class="cls-2" cx="175.06" cy="225.17" r="28.09"/><polygon class="cls-3" points="24.76 146.63 41.97 82.43 88.97 129.43 24.76 146.63"/><rect class="cls-4" x="249.25" y="294.96" width="52.63" height="52.63" transform="translate(-73.76 82.27) rotate(-15)"/><rect class="cls-5" x="59.27" y="512.35" width="71.27" height="71.27" transform="translate(224.67 7.19) rotate(23.32)"/><circle class="cls-6" cx="255.29" cy="446.03" r="20.28"/><circle class="cls-7" cx="172.26" cy="524.59" r="31.84"/><polygon class="cls-8" points="2.92 568.72 5.33 506.17 58.3 539.53 2.92 568.72"/><circle class="cls-4" cx="50.48" cy="508.36" r="21.23"/><circle class="cls-9" cx="29.97" cy="587.14" r="28.33"/></g></g></svg>